Coordinates
version=1
nRows=10
nColumns=63
inDegrees=yes

Units are S.I. units (second, meters, Newtons, ...)
If the header above contains a line with 'inDegrees', this indicates whether rotational values are in degrees (yes) or radians (no).

endheader
time	pelvis_tilt	pelvis_list	pelvis_rotation	pelvis_tx	pelvis_ty	pelvis_tz	hip_flexion_r	hip_adduction_r	hip_rotation_r	knee_angle_r	knee_angle_r_beta	ankle_angle_r	subtalar_angle_r	mtp_angle_r	hip_flexion_l	hip_adduction_l	hip_rotation_l	knee_angle_l	knee_angle_l_beta	ankle_angle_l	subtalar_angle_l	mtp_angle_l	L5_S1_Flex_Ext	L5_S1_Lat_Bending	L5_S1_axial_rotation	L4_L5_Flex_Ext	L4_L5_Lat_Bending	L4_L5_axial_rotation	L3_L4_Flex_Ext	L3_L4_Lat_Bending	L3_L4_axial_rotation	L2_L3_Flex_Ext	L2_L3_Lat_Bending	L2_L3_axial_rotation	L1_L2_Flex_Ext	L1_L2_Lat_Bending	L1_L2_axial_rotation	L1_T12_Flex_Ext	L1_T12_Lat_Bending	L1_T12_axial_rotation	Abs_r3	Abs_r2	Abs_r1	Abs_t1	Abs_t2	neck_flexion	neck_bending	neck_rotation	arm_flex_r	arm_add_r	arm_rot_r	elbow_flex_r	pro_sup_r	wrist_flex_r	wrist_dev_r	arm_flex_l	arm_add_l	arm_rot_l	elbow_flex_l	pro_sup_l	wrist_flex_l	wrist_dev_l
      2.05084746	     -1.32404615	     -0.09161706	     95.30414183	      0.24045952	      0.73924066	      0.73192439	      1.87126631	     -1.18341664	    -27.08388957	     10.47073508	      0.18274880	     20.84497558	     18.31767903	      0.00000000	      1.78401019	     -0.72006276	     13.45334979	      5.73709308	      0.10013116	     -2.75092744	    -18.11822536	      0.00000000	      0.35842406	     -0.24052804	     -1.92310458	      0.66562931	     -0.31990229	     -2.04329862	      0.58885488	     -0.58481987	     -2.04329862	      0.40964285	     -0.58481987	     -1.68271651	      0.33283258	     -0.49048478	     -1.56252247	      0.20480351	     -0.37257793	     -1.44232844	      2.56018718	     -2.72090127	    -10.69573075	      0.00000000	      0.00000000	      1.79244683	      6.57522363	     -0.36363140	     -7.59641797	    -13.36467596	     31.56188323	     54.03440532	     64.39647772	      1.41189398	      6.89934829	     -3.88206733	    -10.15077381	     35.98313065	     54.36229301	     89.05165295	      5.22937206	     10.62664673
      2.06779661	     -1.24446285	     -0.18814034	     95.39808418	      0.24007325	      0.73919220	      0.73260659	      2.08363385	     -1.18073928	    -27.27939458	     10.66975202	      0.18622230	     20.83981701	     18.30470964	      0.00000000	      2.01206523	     -0.76625749	     13.25942875	      5.87303654	      0.10250382	     -3.08472488	    -18.23759382	      0.00000000	      0.35692824	     -0.22087394	     -1.89778205	      0.66285143	     -0.29376234	     -2.01639343	      0.58639740	     -0.53703289	     -2.01639343	      0.40793328	     -0.53703289	     -1.66055929	      0.33144356	     -0.45040613	     -1.54194792	      0.20394879	     -0.34213373	     -1.42333654	      2.54950270	     -2.49857015	    -10.55489443	      0.00000000	      0.00000000	      1.39222216	      6.06673829	     -0.17705943	     -7.96777542	    -13.37114611	     30.16512815	     53.29035428	     66.61749308	     -0.88043382	      6.44845754	     -3.43606325	    -10.21907825	     36.44413070	     53.77592123	     89.00563455	      3.75151185	      9.89656131
      2.08474576	     -1.22419232	     -0.44153591	     95.45785496	      0.23962401	      0.73891570	      0.73371925	      2.51138921	     -1.27655985	    -27.36039303	     10.91381583	      0.19048202	     20.89846088	     18.30611479	      0.00000000	      2.41695808	     -0.71988536	     13.04108245	      5.99278680	      0.10459386	     -3.14888714	    -18.23883763	      0.00000000	      0.37228594	     -0.20800958	     -1.91566454	      0.69137222	     -0.27665274	     -2.03539358	      0.61162857	     -0.50575449	     -2.03539358	      0.42548560	     -0.50575449	     -1.67620647	      0.34570472	     -0.42417314	     -1.55647744	      0.21272418	     -0.32220684	     -1.43674841	      2.65920123	     -2.35304597	    -10.65435148	      0.00000000	      0.00000000	      1.02075712	      5.51846751	      0.31315534	     -8.16836500	    -13.43959749	     29.27112921	     52.46961674	     68.62123889	     -2.22824914	      5.86628181	     -3.71333687	     -9.93138523	     34.92795285	     53.51465470	     88.88270772	      2.22219750	      9.08844178
      2.10169492	     -1.22442512	     -0.54488304	     95.43100331	      0.23921630	      0.73888043	      0.73496014	      2.77463800	     -1.37679662	    -27.37543335	     11.12073627	      0.19409346	     20.88526041	     18.31544237	      0.00000000	      2.67713923	     -0.66168766	     12.68187862	      6.12054249	      0.10682362	     -2.95337497	    -18.16310181	      0.00000000	      0.36157047	     -0.19679965	     -1.93977954	      0.67147252	     -0.26174354	     -2.06101576	      0.59402412	     -0.47849868	     -2.06101576	      0.41323889	     -0.47849868	     -1.69730710	      0.33575434	     -0.40131386	     -1.57607088	      0.20660137	     -0.30484266	     -1.45483466	      2.58266170	     -2.22623705	    -10.78847188	      0.00000000	      0.00000000	      0.68869101	      5.32563141	      1.21194970	     -8.36359643	    -13.49919277	     28.14713440	     51.87016919	     74.36913159	     -3.22402499	      5.76435215	     -4.07575688	     -9.51470801	     32.81189543	     53.22985694	     88.62100962	      0.35705091	      7.98832183
      2.11864407	     -1.26653651	     -0.71612712	     95.05484054	      0.23922963	      0.73870576	      0.73592991	      3.11730181	     -1.49679799	    -26.97741841	     11.29150064	      0.19707386	     20.83123975	     18.29427641	      0.00000000	      2.91748855	     -0.57860670	     12.09655019	      6.16586965	      0.10761473	     -2.53933127	    -18.07413320	      0.00000000	      0.36670816	     -0.19353319	     -1.89550730	      0.68101372	     -0.25739914	     -2.01397651	      0.60246483	     -0.47055660	     -2.01397651	      0.41911075	     -0.47055660	     -1.65856889	      0.34052519	     -0.39465288	     -1.54009968	      0.20953704	     -0.29978291	     -1.42163047	      2.61935969	     -2.18928614	    -10.54224295	      0.00000000	      0.00000000	      0.46024540	      5.21182610	      1.70064157	     -8.79027206	    -13.50758545	     26.63778301	     51.49981024	     81.58549420	     -3.53508813	      5.86350105	     -4.57872983	     -8.97268083	     30.13038472	     52.91500558	     88.21557212	     -0.90719045	      6.96322566
      2.13559322	     -1.38786232	     -0.80482292	     94.28490844	      0.23959986	      0.73870306	      0.73664756	      3.36941317	     -1.66308918	    -26.15939860	     11.39078696	      0.19880674	     20.66779490	     18.31649384	      0.00000000	      2.96560855	     -0.44303133	     11.03379316	      6.09445080	      0.10636823	     -2.06435553	    -17.90027931	      0.00000000	      0.36616555	     -0.20040361	     -1.80843694	      0.68000604	     -0.26653680	     -1.92146424	      0.60157338	     -0.48726133	     -1.92146424	      0.41849060	     -0.48726133	     -1.58238232	      0.34002133	     -0.40866303	     -1.46935501	      0.20922699	     -0.31042519	     -1.35632770	      2.61548389	     -2.26700567	    -10.05798370	      0.00000000	      0.00000000	      0.16230821	      5.17788004	      2.18225706	     -8.73724308	    -13.98499284	     27.06765889	     51.01273779	     85.39146821	     -4.32497173	      5.51795422	     -5.05845816	     -8.52817430	     27.57722064	     52.43758868	     87.64799312	     -1.76686434	      5.67145736
      2.15254237	     -1.61018825	     -0.82277676	     93.26439888	      0.24061384	      0.73883180	      0.73707115	      3.52953406	     -1.87502154	    -25.13473218	     11.42508260	      0.19940531	     20.38026760	     18.31862865	      0.00000000	      2.86254986	     -0.24963896	      9.88311410	      5.95169948	      0.10387675	     -1.79105018	    -17.81956048	      0.00000000	      0.35939136	     -0.22200260	     -1.64248464	      0.66742570	     -0.29526346	     -1.74513993	      0.59044407	     -0.53977713	     -1.74513993	      0.41074839	     -0.53977713	     -1.43717406	      0.33373082	     -0.45270771	     -1.33451877	      0.20535622	     -0.34388203	     -1.23186348	      2.56709656	     -2.51133784	     -9.13500684	      0.00000000	      0.00000000	     -0.23206361	      5.12939319	      2.52509920	     -8.99100183	    -14.21527689	     26.95934982	     50.64481557	     87.25936881	     -4.83907380	      5.05601210	     -5.27636101	     -8.39238995	     25.75805448	     51.68476944	     86.88141292	     -1.62909227	      4.54923207
      2.16949153	     -1.88639936	     -0.82894233	     92.35364682	      0.24153785	      0.73907677	      0.73709404	      3.59223602	     -2.12158786	    -24.16048625	     11.34182032	      0.19795211	     20.06477330	     18.41272005	      0.00000000	      2.73623445	      0.00177167	      8.74799685	      5.80710270	      0.10135306	     -1.80208775	    -17.85484441	      0.00000000	      0.35859313	     -0.25084269	     -1.49180011	      0.66594330	     -0.33362078	     -1.58503762	      0.58913265	     -0.60989892	     -1.58503762	      0.40983609	     -0.60989892	     -1.30532510	      0.33298958	     -0.51151842	     -1.21208759	      0.20490011	     -0.38855533	     -1.11885008	      2.56139487	     -2.83758271	     -8.29694467	      0.00000000	      0.00000000	     -0.79059242	      4.87413382	      2.72256315	     -9.31166014	    -14.26830467	     26.67085532	     50.21119511	     87.57112581	     -5.19348726	      4.52008476	     -5.48661486	     -8.51347052	     24.55988020	     50.76718247	     86.19007771	     -1.04495754	      3.41724364
      2.18644068	     -2.20739453	     -0.80743703	     91.00583055	      0.24291827	      0.73937846	      0.73692709	      3.74146717	     -2.40552569	    -22.66782459	     11.37480721	      0.19852784	     19.77239763	     18.35602407	      0.00000000	      2.46068437	      0.27423587	      7.24519729	      5.52145179	      0.09636751	     -1.96479850	    -17.77985402	      0.00000000	      0.35742905	     -0.27733569	     -1.23066220	      0.66378148	     -0.36885647	     -1.30757859	      0.58722018	     -0.67431400	     -1.30757859	      0.40850566	     -0.67431400	     -1.07682942	      0.33190861	     -0.56554294	     -0.99991304	      0.20423496	     -0.42959298	     -0.92299665	      2.55307994	     -3.13727679	     -6.84457395	      0.00000000	      0.00000000	     -1.22197882	      4.50686174	      2.99072776	     -9.59852397	    -14.38831734	     26.45725744	     49.78057399	     87.52173147	     -5.40097757	      3.82064515	     -5.29754207	     -8.93278716	     24.53881298	     49.24073790	     86.08696978	      0.66233917	      2.13376863
      2.20338983	     -2.47756284	     -0.81965479	     90.71107243	      0.24299144	      0.73972241	      0.73675151	      3.72605363	     -2.66898981	    -22.16779800	     11.22552566	      0.19592238	     19.61009386	     18.43817274	      0.00000000	      2.45651311	      0.55840178	      6.88586410	      5.56365103	      0.09710403	     -2.06437262	    -17.82586454	      0.00000000	      0.35693407	     -0.30428847	     -1.19256144	      0.66286226	     -0.40470367	     -1.26709653	      0.58640699	     -0.73984699	     -1.26709653	      0.40793995	     -0.73984699	     -1.04349126	      0.33144898	     -0.62050505	     -0.96895617	      0.20395213	     -0.47134284	     -0.89442108	      2.54954438	     -3.44217205	     -6.63266898	      0.00000000	      0.00000000	     -1.72101014	      4.10973671	      3.07804748	     -9.61148200	    -14.40256622	     26.39628732	     49.23904280	     87.35611568	     -5.43450708	      3.91044126	     -5.25463092	     -9.43565232	     24.83462863	     47.87343117	     86.49916517	      1.05532051	      2.11025641
